<svg width="36" height="37" viewBox="0 0 36 37" fill="none" xmlns="http://www.w3.org/2000/svg">
<path d="M8.775 26.0328C10.05 25.0578 11.475 24.2891 13.05 23.7266C14.625 23.1641 16.275 22.8828 18 22.8828C19.725 22.8828 21.375 23.1641 22.95 23.7266C24.525 24.2891 25.95 25.0578 27.225 26.0328C28.1 25.0078 28.7813 23.8453 29.2688 22.5453C29.7563 21.2453 30 19.8578 30 18.3828C30 15.0578 28.8313 12.2266 26.4938 9.88906C24.1562 7.55156 21.325 6.38281 18 6.38281C14.675 6.38281 11.8438 7.55156 9.50625 9.88906C7.16875 12.2266 6 15.0578 6 18.3828C6 19.8578 6.24375 21.2453 6.73125 22.5453C7.21875 23.8453 7.9 25.0078 8.775 26.0328ZM18 19.8828C16.525 19.8828 15.2812 19.3766 14.2688 18.3641C13.2563 17.3516 12.75 16.1078 12.75 14.6328C12.75 13.1578 13.2563 11.9141 14.2688 10.9016C15.2812 9.88906 16.525 9.38281 18 9.38281C19.475 9.38281 20.7188 9.88906 21.7313 10.9016C22.7437 11.9141 23.25 13.1578 23.25 14.6328C23.25 16.1078 22.7437 17.3516 21.7313 18.3641C20.7188 19.3766 19.475 19.8828 18 19.8828ZM18 33.3828C15.925 33.3828 13.975 32.9891 12.15 32.2016C10.325 31.4141 8.7375 30.3453 7.3875 28.9953C6.0375 27.6453 4.96875 26.0578 4.18125 24.2328C3.39375 22.4078 3 20.4578 3 18.3828C3 16.3078 3.39375 14.3578 4.18125 12.5328C4.96875 10.7078 6.0375 9.12031 7.3875 7.77031C8.7375 6.42031 10.325 5.35156 12.15 4.56406C13.975 3.77656 15.925 3.38281 18 3.38281C20.075 3.38281 22.025 3.77656 23.85 4.56406C25.675 5.35156 27.2625 6.42031 28.6125 7.77031C29.9625 9.12031 31.0312 10.7078 31.8187 12.5328C32.6062 14.3578 33 16.3078 33 18.3828C33 20.4578 32.6062 22.4078 31.8187 24.2328C31.0312 26.0578 29.9625 27.6453 28.6125 28.9953C27.2625 30.3453 25.675 31.4141 23.85 32.2016C22.025 32.9891 20.075 33.3828 18 33.3828ZM18 30.3828C19.325 30.3828 20.575 30.1891 21.75 29.8016C22.925 29.4141 24 28.8578 24.975 28.1328C24 27.4078 22.925 26.8516 21.75 26.4641C20.575 26.0766 19.325 25.8828 18 25.8828C16.675 25.8828 15.425 26.0766 14.25 26.4641C13.075 26.8516 12 27.4078 11.025 28.1328C12 28.8578 13.075 29.4141 14.25 29.8016C15.425 30.1891 16.675 30.3828 18 30.3828ZM18 16.8828C18.65 16.8828 19.1875 16.6703 19.6125 16.2453C20.0375 15.8203 20.25 15.2828 20.25 14.6328C20.25 13.9828 20.0375 13.4453 19.6125 13.0203C19.1875 12.5953 18.65 12.3828 18 12.3828C17.35 12.3828 16.8125 12.5953 16.3875 13.0203C15.9625 13.4453 15.75 13.9828 15.75 14.6328C15.75 15.2828 15.9625 15.8203 16.3875 16.2453C16.8125 16.6703 17.35 16.8828 18 16.8828Z" fill="#4F4F4F"/>
</svg>
