<svg width="36" height="37" viewBox="0 0 36 37" fill="none" xmlns="http://www.w3.org/2000/svg">
<path d="M8.775 26.2955C10.05 25.3205 11.475 24.5518 13.05 23.9893C14.625 23.4268 16.275 23.1455 18 23.1455C19.725 23.1455 21.375 23.4268 22.95 23.9893C24.525 24.5518 25.95 25.3205 27.225 26.2955C28.1 25.2705 28.7813 24.108 29.2688 22.808C29.7563 21.508 30 20.1205 30 18.6455C30 15.3205 28.8313 12.4893 26.4938 10.1518C24.1562 7.81426 21.325 6.64551 18 6.64551C14.675 6.64551 11.8438 7.81426 9.50625 10.1518C7.16875 12.4893 6 15.3205 6 18.6455C6 20.1205 6.24375 21.508 6.73125 22.808C7.21875 24.108 7.9 25.2705 8.775 26.2955ZM18 20.1455C16.525 20.1455 15.2812 19.6393 14.2688 18.6268C13.2563 17.6143 12.75 16.3705 12.75 14.8955C12.75 13.4205 13.2563 12.1768 14.2688 11.1643C15.2812 10.1518 16.525 9.64551 18 9.64551C19.475 9.64551 20.7188 10.1518 21.7313 11.1643C22.7437 12.1768 23.25 13.4205 23.25 14.8955C23.25 16.3705 22.7437 17.6143 21.7313 18.6268C20.7188 19.6393 19.475 20.1455 18 20.1455ZM18 33.6455C15.925 33.6455 13.975 33.2518 12.15 32.4643C10.325 31.6768 8.7375 30.608 7.3875 29.258C6.0375 27.908 4.96875 26.3205 4.18125 24.4955C3.39375 22.6705 3 20.7205 3 18.6455C3 16.5705 3.39375 14.6205 4.18125 12.7955C4.96875 10.9705 6.0375 9.38301 7.3875 8.03301C8.7375 6.68301 10.325 5.61426 12.15 4.82676C13.975 4.03926 15.925 3.64551 18 3.64551C20.075 3.64551 22.025 4.03926 23.85 4.82676C25.675 5.61426 27.2625 6.68301 28.6125 8.03301C29.9625 9.38301 31.0312 10.9705 31.8187 12.7955C32.6062 14.6205 33 16.5705 33 18.6455C33 20.7205 32.6062 22.6705 31.8187 24.4955C31.0312 26.3205 29.9625 27.908 28.6125 29.258C27.2625 30.608 25.675 31.6768 23.85 32.4643C22.025 33.2518 20.075 33.6455 18 33.6455ZM18 30.6455C19.325 30.6455 20.575 30.4518 21.75 30.0643C22.925 29.6768 24 29.1205 24.975 28.3955C24 27.6705 22.925 27.1143 21.75 26.7268C20.575 26.3393 19.325 26.1455 18 26.1455C16.675 26.1455 15.425 26.3393 14.25 26.7268C13.075 27.1143 12 27.6705 11.025 28.3955C12 29.1205 13.075 29.6768 14.25 30.0643C15.425 30.4518 16.675 30.6455 18 30.6455ZM18 17.1455C18.65 17.1455 19.1875 16.933 19.6125 16.508C20.0375 16.083 20.25 15.5455 20.25 14.8955C20.25 14.2455 20.0375 13.708 19.6125 13.283C19.1875 12.858 18.65 12.6455 18 12.6455C17.35 12.6455 16.8125 12.858 16.3875 13.283C15.9625 13.708 15.75 14.2455 15.75 14.8955C15.75 15.5455 15.9625 16.083 16.3875 16.508C16.8125 16.933 17.35 17.1455 18 17.1455Z" fill="#4F4F4F"/>
</svg>
