<svg width="32" height="33" viewBox="0 0 32 33" fill="none" xmlns="http://www.w3.org/2000/svg">
<path d="M22.2967 19.3924C21.9561 19.2174 20.2592 18.3861 19.9436 18.2736C19.6279 18.1549 19.3967 18.0986 19.1686 18.4486C18.9373 18.7955 18.2811 19.5674 18.0748 19.8018C17.8748 20.033 17.6717 20.0611 17.3311 19.8893C15.3061 18.8768 13.9779 18.083 12.6436 15.7924C12.2904 15.183 12.9967 15.2268 13.6561 13.9111C13.7686 13.6799 13.7123 13.483 13.6248 13.308C13.5373 13.133 12.8498 11.4393 12.5623 10.7486C12.2842 10.0768 11.9967 10.1705 11.7873 10.158C11.5873 10.1455 11.3592 10.1455 11.1279 10.1455C10.8967 10.1455 10.5248 10.233 10.2092 10.5736C9.89355 10.9205 9.00293 11.7549 9.00293 13.4486C9.00293 15.1424 10.2373 16.783 10.4061 17.0143C10.5811 17.2455 12.8342 20.7205 16.2936 22.2174C18.4811 23.1611 19.3373 23.2424 20.4311 23.0799C21.0967 22.9799 22.4686 22.2486 22.7529 21.4393C23.0373 20.633 23.0373 19.9424 22.9529 19.7986C22.8686 19.6455 22.6373 19.558 22.2967 19.3924Z" fill="#FCFCFC"/>
<path d="M28.9127 11.2205C28.2064 9.54238 27.1939 8.03613 25.9033 6.74238C24.6127 5.45176 23.1064 4.43613 21.4252 3.73301C19.7064 3.01113 17.8814 2.64551 16.0002 2.64551H15.9377C14.0439 2.65488 12.2096 3.02988 10.4846 3.76738C8.81893 4.47988 7.32518 5.49238 6.04705 6.78301C4.76893 8.07363 3.7658 9.57363 3.07205 11.2455C2.3533 12.9768 1.9908 14.8174 2.00018 16.7111C2.00955 18.8799 2.5283 21.033 3.50018 22.958V27.708C3.50018 28.5018 4.14393 29.1455 4.93768 29.1455H9.6908C11.6158 30.1174 13.7689 30.6361 15.9377 30.6455H16.0033C17.8752 30.6455 19.6908 30.283 21.4002 29.5736C23.0721 28.8768 24.5752 27.8768 25.8627 26.5986C27.1533 25.3205 28.1689 23.8268 28.8783 22.1611C29.6158 20.4361 29.9908 18.6018 30.0002 16.708C30.0096 14.8049 29.6408 12.958 28.9127 11.2205ZM24.1908 24.908C22.0002 27.0768 19.0939 28.2705 16.0002 28.2705H15.9471C14.0627 28.2611 12.1908 27.7924 10.5377 26.9111L10.2752 26.7705H5.87518V22.3705L5.73455 22.108C4.8533 20.4549 4.38455 18.583 4.37518 16.6986C4.36268 13.583 5.5533 10.658 7.73768 8.45488C9.91893 6.25176 12.8346 5.03301 15.9502 5.02051H16.0033C17.5658 5.02051 19.0814 5.32363 20.5096 5.92363C21.9033 6.50801 23.1533 7.34863 24.2283 8.42363C25.3002 9.49551 26.1439 10.7486 26.7283 12.1424C27.3346 13.5861 27.6377 15.1174 27.6314 16.6986C27.6127 19.8111 26.3908 22.7268 24.1908 24.908Z" fill="#FCFCFC"/>
</svg>
