<svg width="108" height="102" viewBox="0 0 108 102" fill="none" xmlns="http://www.w3.org/2000/svg">
<path d="M53.5789 50.5993C49.2234 50.5993 45.5504 49.1787 42.5599 46.3377C39.5695 43.4975 38.0742 40.008 38.0742 35.8692C38.0742 31.8117 39.5695 28.3401 42.5599 25.4544C45.5504 22.5687 49.2234 21.1258 53.5789 21.1258C57.8498 21.1258 61.504 22.5687 64.5414 25.4544C67.5789 28.3401 69.0977 31.8117 69.0977 35.8692C69.0977 40.008 67.5789 43.4975 64.5414 46.3377C61.504 49.1787 57.8498 50.5993 53.5789 50.5993ZM53.5859 42.5611C55.5461 42.5611 57.211 41.9193 58.5807 40.6359C59.9514 39.3516 60.6367 37.7605 60.6367 35.8625C60.6367 34.0012 59.9514 32.4195 58.5807 31.1173C57.211 29.8151 55.5371 29.164 53.5591 29.164C51.5812 29.164 49.9158 29.8151 48.563 31.1173C47.2111 32.4195 46.5352 34.0102 46.5352 35.8893C46.5352 37.7676 47.2106 39.3493 48.5616 40.6346C49.9134 41.9189 51.5882 42.5611 53.5859 42.5611ZM21.1523 80.6917V71.8497C21.1523 70.1938 21.5923 68.6362 22.4722 67.1768C23.3522 65.7183 24.5466 64.555 26.0555 63.6869C30.2352 61.3442 34.6447 59.5735 39.2841 58.3749C43.9226 57.1763 48.6899 56.577 53.5859 56.577C58.482 56.577 63.2493 57.1763 67.8877 58.3749C72.5272 59.5735 76.9367 61.3442 81.1164 63.6869C82.6253 64.555 83.8197 65.7183 84.6996 67.1768C85.5796 68.6362 86.0195 70.1938 86.0195 71.8497V80.6917H21.1523ZM53.5859 64.6153C49.551 64.6153 45.5556 65.1302 41.5996 66.1599C37.6437 67.1906 33.8217 68.7023 30.1336 70.6948V72.7044H77.0382V70.6439C73.3859 68.6513 69.5729 67.1482 65.5991 66.1345C61.6252 65.1217 57.6209 64.6153 53.5859 64.6153ZM10.2152 101.818C7.3535 101.818 4.93555 100.88 2.96133 99.0041C0.98711 97.1285 0 94.8314 0 92.1127V72.344H8.46094V92.1301C8.46094 92.5427 8.64191 92.9205 9.00385 93.2635C9.36485 93.6074 9.76251 93.7793 10.1968 93.7793H31.0234V101.818H10.2152ZM0 29.4735V9.70482C0 6.98611 0.98711 4.68896 2.96133 2.81338C4.93555 0.937793 7.3535 0 10.2152 0H31.0234V8.03822H10.1968C9.76251 8.03822 9.36485 8.21015 9.00385 8.55401C8.64191 8.89697 8.46094 9.27477 8.46094 9.6874V29.4735H0ZM76.1484 101.818V93.7793H96.975C97.4094 93.7793 97.807 93.6074 98.168 93.2635C98.53 92.9205 98.7109 92.5427 98.7109 92.1301V72.344H107.172V92.1127C107.172 94.8314 106.185 97.1285 104.211 99.0041C102.236 100.88 99.8184 101.818 96.9567 101.818H76.1484ZM98.7109 29.4735V9.6874C98.7109 9.27477 98.53 8.89697 98.168 8.55401C97.807 8.21015 97.4094 8.03822 96.975 8.03822H76.1484V0H96.9567C99.8184 0 102.236 0.937793 104.211 2.81338C106.185 4.68896 107.172 6.98611 107.172 9.70482V29.4735H98.7109Z" fill="#212121"/>
</svg>
