<svg width="32" height="33" viewBox="0 0 32 33" fill="none" xmlns="http://www.w3.org/2000/svg">
<path d="M22.2937 19.3934C21.9531 19.2184 20.2563 18.3871 19.9406 18.2746C19.625 18.1559 19.3938 18.0996 19.1656 18.4496C18.9344 18.7965 18.2781 19.5684 18.0719 19.8027C17.8719 20.034 17.6687 20.0621 17.3281 19.8902C15.3031 18.8777 13.975 18.084 12.6406 15.7934C12.2875 15.184 12.9937 15.2277 13.6531 13.9121C13.7656 13.6809 13.7094 13.484 13.6219 13.309C13.5344 13.134 12.8469 11.4402 12.5594 10.7496C12.2812 10.0777 11.9938 10.1715 11.7844 10.159C11.5844 10.1465 11.3563 10.1465 11.125 10.1465C10.8937 10.1465 10.5219 10.234 10.2063 10.5746C9.89063 10.9215 9 11.7559 9 13.4496C9 15.1434 10.2344 16.784 10.4031 17.0152C10.5781 17.2465 12.8313 20.7215 16.2906 22.2184C18.4781 23.1621 19.3344 23.2434 20.4281 23.0809C21.0937 22.9809 22.4656 22.2496 22.75 21.4402C23.0344 20.634 23.0344 19.9434 22.95 19.7996C22.8656 19.6465 22.6344 19.559 22.2937 19.3934Z" fill="#FCFCFC"/>
<path d="M28.9127 11.2215C28.2064 9.54336 27.1939 8.03711 25.9033 6.74336C24.6127 5.45273 23.1064 4.43711 21.4252 3.73398C19.7064 3.01211 17.8814 2.64648 16.0002 2.64648H15.9377C14.0439 2.65586 12.2096 3.03086 10.4846 3.76836C8.81893 4.48086 7.32518 5.49336 6.04705 6.78398C4.76893 8.07461 3.7658 9.57461 3.07205 11.2465C2.3533 12.9777 1.9908 14.8184 2.00018 16.7121C2.00955 18.8809 2.5283 21.034 3.50018 22.959V27.709C3.50018 28.5027 4.14393 29.1465 4.93768 29.1465H9.6908C11.6158 30.1184 13.7689 30.6371 15.9377 30.6465H16.0033C17.8752 30.6465 19.6908 30.284 21.4002 29.5746C23.0721 28.8777 24.5752 27.8777 25.8627 26.5996C27.1533 25.3215 28.1689 23.8277 28.8783 22.1621C29.6158 20.4371 29.9908 18.6027 30.0002 16.709C30.0096 14.8059 29.6408 12.959 28.9127 11.2215ZM24.1908 24.909C22.0002 27.0777 19.0939 28.2715 16.0002 28.2715H15.9471C14.0627 28.2621 12.1908 27.7934 10.5377 26.9121L10.2752 26.7715H5.87518V22.3715L5.73455 22.109C4.8533 20.4559 4.38455 18.584 4.37518 16.6996C4.36268 13.584 5.5533 10.659 7.73768 8.45586C9.91893 6.25273 12.8346 5.03398 15.9502 5.02148H16.0033C17.5658 5.02148 19.0814 5.32461 20.5096 5.92461C21.9033 6.50898 23.1533 7.34961 24.2283 8.42461C25.3002 9.49648 26.1439 10.7496 26.7283 12.1434C27.3346 13.5871 27.6377 15.1184 27.6314 16.6996C27.6127 19.8121 26.3908 22.7277 24.1908 24.909Z" fill="#FCFCFC"/>
</svg>
