<svg width="23" height="24" viewBox="0 0 23 24" fill="none" xmlns="http://www.w3.org/2000/svg">
<g clip-path="url(#clip0_2024_1560)">
<path d="M9.19919 17.231C9.58477 17.231 9.91801 17.3715 10.1989 17.6524C10.4798 17.9333 10.6203 18.2693 10.6203 18.6604C10.6203 19.0515 10.4798 19.3847 10.1989 19.6601C9.91801 19.9355 9.58201 20.0732 9.19093 20.0732C8.79985 20.0732 8.46661 19.9355 8.1912 19.6601C7.91579 19.3847 7.77808 19.0515 7.77808 18.6604C7.77808 18.2693 7.91579 17.9333 8.1912 17.6524C8.46661 17.3715 8.80261 17.231 9.19919 17.231ZM17.4284 17.231C17.825 17.231 18.1638 17.3715 18.4447 17.6524C18.7256 17.9333 18.8661 18.2693 18.8661 18.6604C18.8661 19.0515 18.7256 19.3847 18.4447 19.6601C18.1638 19.9355 17.8278 20.0732 17.4367 20.0732C17.0456 20.0732 16.7096 19.9355 16.4287 19.6601C16.1478 19.3847 16.0073 19.0515 16.0073 18.6604C16.0073 18.2693 16.1478 17.9333 16.4287 17.6524C16.7096 17.3715 17.0428 17.231 17.4284 17.231ZM5.5638 4.34188C5.83921 4.34188 6.08432 4.419 6.29914 4.57323C6.51396 4.72745 6.66543 4.93126 6.75356 5.18463L6.77009 5.28378L7.36497 7.66331H18.4034C18.7228 7.66331 19.0038 7.77348 19.2461 7.9938C19.4885 8.21413 19.6207 8.48403 19.6427 8.80351V8.90265C19.6427 8.99079 19.6372 9.05688 19.6262 9.10095L19.6097 9.2001L18.3042 14.4219C18.2491 14.6752 18.1197 14.89 17.9159 15.0663C17.7121 15.2426 17.478 15.3417 17.2136 15.3637H9.14962C8.88523 15.3637 8.64562 15.2866 8.4308 15.1324C8.21598 14.9782 8.06451 14.7744 7.97638 14.521L7.94333 14.4219L5.74557 5.53165C5.72353 5.47657 5.67947 5.43801 5.61337 5.41598L5.5638 5.39945H3.64695C3.50374 5.39945 3.3798 5.34712 3.27515 5.24247C3.17049 5.13781 3.11816 5.01663 3.11816 4.87893C3.11816 4.74122 3.16223 4.62004 3.25036 4.51539C3.33849 4.41073 3.44865 4.3529 3.58085 4.34188H5.5638Z" fill="#FCFCFC"/>
</g>
<defs>
<clipPath id="clip0_2024_1560">
<rect width="16.9001" height="16.5245" fill="white" transform="matrix(1 0 0 -1 2.93066 20.1729)"/>
</clipPath>
</defs>
</svg>
