<svg width="36" height="36" viewBox="0 0 36 36" fill="none" xmlns="http://www.w3.org/2000/svg">
<path d="M18.3703 3.86426C10.3343 3.86426 3.82031 10.3783 3.82031 18.4143C3.82031 26.4502 10.3343 32.9643 18.3703 32.9643C26.4063 32.9643 32.9203 26.4502 32.9203 18.4143C32.9203 10.3783 26.4063 3.86426 18.3703 3.86426Z" stroke="black" stroke-width="2.1825" stroke-linecap="round" stroke-linejoin="round"/>
<path d="M7.125 27.648C7.125 27.648 10.3682 23.5071 18.3707 23.5071C26.3732 23.5071 29.6178 27.648 29.6178 27.648M18.3707 18.4146C19.5284 18.4146 20.6386 17.9547 21.4572 17.1361C22.2758 16.3175 22.7357 15.2072 22.7357 14.0496C22.7357 12.8919 22.2758 11.7816 21.4572 10.963C20.6386 10.1445 19.5284 9.68457 18.3707 9.68457C17.213 9.68457 16.1028 10.1445 15.2842 10.963C14.4656 11.7816 14.0057 12.8919 14.0057 14.0496C14.0057 15.2072 14.4656 16.3175 15.2842 17.1361C16.1028 17.9547 17.213 18.4146 18.3707 18.4146Z" stroke="black" stroke-width="2.1825" stroke-linecap="round" stroke-linejoin="round"/>
</svg>
