<svg width="34" height="34" viewBox="0 0 34 34" fill="none" xmlns="http://www.w3.org/2000/svg">
<path d="M9.11888 19.7319C8.37183 19.7319 7.73231 19.4659 7.20033 18.9339C6.66834 18.4019 6.40234 17.7624 6.40234 17.0154C6.40234 16.2683 6.66834 15.6288 7.20033 15.0968C7.73231 14.5648 8.37183 14.2988 9.11888 14.2988C9.86592 14.2988 10.5054 14.5648 11.0374 15.0968C11.5694 15.6288 11.8354 16.2683 11.8354 17.0154C11.8354 17.7624 11.5694 18.4019 11.0374 18.9339C10.5054 19.4659 9.86592 19.7319 9.11888 19.7319ZM17.2685 19.7319C16.5214 19.7319 15.8819 19.4659 15.3499 18.9339C14.8179 18.4019 14.5519 17.7624 14.5519 17.0154C14.5519 16.2683 14.8179 15.6288 15.3499 15.0968C15.8819 14.5648 16.5214 14.2988 17.2685 14.2988C18.0155 14.2988 18.655 14.5648 19.187 15.0968C19.719 15.6288 19.985 16.2683 19.985 17.0154C19.985 17.7624 19.719 18.4019 19.187 18.9339C18.655 19.4659 18.0155 19.7319 17.2685 19.7319ZM25.4181 19.7319C24.671 19.7319 24.0315 19.4659 23.4995 18.9339C22.9675 18.4019 22.7015 17.7624 22.7015 17.0154C22.7015 16.2683 22.9675 15.6288 23.4995 15.0968C24.0315 14.5648 24.671 14.2988 25.4181 14.2988C26.1651 14.2988 26.8046 14.5648 27.3366 15.0968C27.8686 15.6288 28.1346 16.2683 28.1346 17.0154C28.1346 17.7624 27.8686 18.4019 27.3366 18.9339C26.8046 19.4659 26.1651 19.7319 25.4181 19.7319Z" fill="#212121"/>
</svg>
