<svg width="24" height="23" viewBox="0 0 24 23" fill="none" xmlns="http://www.w3.org/2000/svg">
<path d="M11.9418 11.266C10.909 11.266 10.0249 10.8983 9.28944 10.1628C8.55397 9.42737 8.18624 8.54324 8.18624 7.51046C8.18624 6.47768 8.55397 5.59355 9.28944 4.85808C10.0249 4.12262 10.909 3.75488 11.9418 3.75488C12.9746 3.75488 13.8587 4.12262 14.5942 4.85808C15.3297 5.59355 15.6974 6.47768 15.6974 7.51046C15.6974 8.54324 15.3297 9.42737 14.5942 10.1628C13.8587 10.8983 12.9746 11.266 11.9418 11.266ZM17.5752 18.7772H6.30845C5.79206 18.7772 5.35 18.5933 4.98226 18.2256C4.61453 17.8579 4.43066 17.4158 4.43066 16.8994V16.1483C4.43066 15.6162 4.56759 15.1272 4.84143 14.6813C5.11527 14.2353 5.4791 13.8949 5.93289 13.6602C6.90309 13.1751 7.88892 12.8113 8.89041 12.5688C9.8919 12.3262 10.909 12.2049 11.9418 12.2049C12.9746 12.2049 13.9917 12.3262 14.9932 12.5688C15.9947 12.8113 16.9806 13.1751 17.9507 13.6602C18.4045 13.8949 18.7684 14.2353 19.0422 14.6813C19.316 15.1272 19.453 15.6162 19.453 16.1483V16.8994C19.453 17.4158 19.2691 17.8579 18.9014 18.2256C18.5336 18.5933 18.0916 18.7772 17.5752 18.7772ZM6.30845 16.8994H17.5752V16.1483C17.5752 15.9762 17.5322 15.8197 17.4461 15.6788C17.36 15.538 17.2466 15.4285 17.1057 15.3502C16.2607 14.9277 15.4079 14.6108 14.5472 14.3996C13.6866 14.1883 12.8181 14.0827 11.9418 14.0827C11.0655 14.0827 10.197 14.1883 9.33639 14.3996C8.47573 14.6108 7.6229 14.9277 6.7779 15.3502C6.63707 15.4285 6.52362 15.538 6.43755 15.6788C6.35149 15.8197 6.30845 15.9762 6.30845 16.1483V16.8994ZM11.9418 9.38825C12.4582 9.38825 12.9003 9.20438 13.268 8.83665C13.6357 8.46891 13.8196 8.02685 13.8196 7.51046C13.8196 6.99407 13.6357 6.55201 13.268 6.18427C12.9003 5.81654 12.4582 5.63267 11.9418 5.63267C11.4254 5.63267 10.9834 5.81654 10.6156 6.18427C10.2479 6.55201 10.064 6.99407 10.064 7.51046C10.064 8.02685 10.2479 8.46891 10.6156 8.83665C10.9834 9.20438 11.4254 9.38825 11.9418 9.38825Z" fill="#4F4F4F"/>
</svg>
