<svg width="34" height="34" viewBox="0 0 34 34" fill="none" xmlns="http://www.w3.org/2000/svg">
<path d="M17.0314 30.5979C15.1525 30.5979 13.3868 30.2414 11.7342 29.5283C10.0816 28.8152 8.64415 27.8475 7.42171 26.625C6.19927 25.4026 5.2315 23.9651 4.51841 22.3125C3.80532 20.66 3.44878 18.8942 3.44878 17.0153C3.44878 15.6117 3.6412 14.2818 4.02604 13.0254C4.41088 11.769 4.96551 10.5975 5.68992 9.51086L2.59986 6.4208C2.32821 6.14915 2.19238 5.82656 2.19238 5.45304C2.19238 5.07952 2.32821 4.75693 2.59986 4.48527C2.87152 4.21362 3.1941 4.07779 3.56763 4.07779C3.94115 4.07779 4.26374 4.21362 4.53539 4.48527L29.5275 29.4774C29.7992 29.749 29.9293 30.066 29.918 30.4282C29.9067 30.7904 29.7652 31.1073 29.4935 31.379C29.2219 31.6506 28.8993 31.7864 28.5258 31.7864C28.1523 31.7864 27.8297 31.6506 27.558 31.379L24.5359 28.3568C23.4493 29.0812 22.2778 29.6358 21.0214 30.0207C19.765 30.4055 18.435 30.5979 17.0314 30.5979ZM15.6732 27.8135V25.1649C14.9261 25.1649 14.2866 24.8989 13.7546 24.3669C13.2226 23.8349 12.9566 23.1954 12.9566 22.4483V21.0901L6.43697 14.5704C6.36905 14.9779 6.3068 15.3854 6.2502 15.7928C6.19361 16.2003 6.16531 16.6078 6.16531 17.0153C6.16531 19.7545 7.06516 22.1541 8.86487 24.2141C10.6646 26.2741 12.934 27.4739 15.6732 27.8135ZM28.373 24.4518L26.4035 22.4823C26.8789 21.6447 27.2467 20.7675 27.5071 19.8507C27.7674 18.9338 27.8976 17.9887 27.8976 17.0153C27.8976 14.7968 27.2807 12.7707 26.0469 10.937C24.8132 9.10338 23.1663 7.77907 21.1062 6.96411V7.50742C21.1062 8.25446 20.8403 8.89398 20.3083 9.42597C19.7763 9.95796 19.1368 10.2239 18.3897 10.2239H15.6732V11.752L9.59494 5.67376C10.6815 4.97199 11.8474 4.42302 13.0925 4.02686C14.3376 3.6307 15.6505 3.43262 17.0314 3.43262C18.9104 3.43262 20.6761 3.78916 22.3287 4.50225C23.9812 5.21534 25.4187 6.18311 26.6412 7.40555C27.8636 8.62799 28.8314 10.0655 29.5445 11.718C30.2576 13.3706 30.6141 15.1363 30.6141 17.0153C30.6141 18.3962 30.416 19.7092 30.0199 20.9543C29.6237 22.1993 29.0747 23.3652 28.373 24.4518Z" fill="#212121"/>
</svg>
