<svg width="24" height="25" viewBox="0 0 24 25" fill="none" xmlns="http://www.w3.org/2000/svg">
<g clip-path="url(#clip0_2024_779)">
<mask id="mask0_2024_779" style="mask-type:alpha" maskUnits="userSpaceOnUse" x="0" y="0" width="24" height="25">
<rect y="0.645508" width="24" height="24" fill="#D9D9D9"/>
</mask>
<g mask="url(#mask0_2024_779)">
<path d="M19.6 21.6455L13.3 15.3455C12.8 15.7455 12.225 16.0622 11.575 16.2955C10.925 16.5288 10.2333 16.6455 9.5 16.6455C7.68333 16.6455 6.14583 16.0163 4.8875 14.758C3.62917 13.4997 3 11.9622 3 10.1455C3 8.32884 3.62917 6.79134 4.8875 5.53301C6.14583 4.27467 7.68333 3.64551 9.5 3.64551C11.3167 3.64551 12.8542 4.27467 14.1125 5.53301C15.3708 6.79134 16 8.32884 16 10.1455C16 10.8788 15.8833 11.5705 15.65 12.2205C15.4167 12.8705 15.1 13.4455 14.7 13.9455L21 20.2455L19.6 21.6455ZM9.5 14.6455C10.75 14.6455 11.8125 14.208 12.6875 13.333C13.5625 12.458 14 11.3955 14 10.1455C14 8.89551 13.5625 7.83301 12.6875 6.95801C11.8125 6.08301 10.75 5.64551 9.5 5.64551C8.25 5.64551 7.1875 6.08301 6.3125 6.95801C5.4375 7.83301 5 8.89551 5 10.1455C5 11.3955 5.4375 12.458 6.3125 13.333C7.1875 14.208 8.25 14.6455 9.5 14.6455Z" fill="#212121"/>
</g>
</g>
<defs>
<clipPath id="clip0_2024_779">
<rect width="24" height="24" fill="white" transform="translate(0 0.645508)"/>
</clipPath>
</defs>
</svg>
