<svg width="24" height="25" viewBox="0 0 24 25" fill="none" xmlns="http://www.w3.org/2000/svg">
<g clip-path="url(#clip0_2321_9333)">
<mask id="mask0_2321_9333" style="mask-type:alpha" maskUnits="userSpaceOnUse" x="0" y="0" width="24" height="25">
<rect y="0.382812" width="24" height="24" fill="#D9D9D9"/>
</mask>
<g mask="url(#mask0_2321_9333)">
<path d="M19.6 21.3828L13.3 15.0828C12.8 15.4828 12.225 15.7995 11.575 16.0328C10.925 16.2661 10.2333 16.3828 9.5 16.3828C7.68333 16.3828 6.14583 15.7536 4.8875 14.4953C3.62917 13.237 3 11.6995 3 9.88281C3 8.06615 3.62917 6.52865 4.8875 5.27031C6.14583 4.01198 7.68333 3.38281 9.5 3.38281C11.3167 3.38281 12.8542 4.01198 14.1125 5.27031C15.3708 6.52865 16 8.06615 16 9.88281C16 10.6161 15.8833 11.3078 15.65 11.9578C15.4167 12.6078 15.1 13.1828 14.7 13.6828L21 19.9828L19.6 21.3828ZM9.5 14.3828C10.75 14.3828 11.8125 13.9453 12.6875 13.0703C13.5625 12.1953 14 11.1328 14 9.88281C14 8.63281 13.5625 7.57031 12.6875 6.69531C11.8125 5.82031 10.75 5.38281 9.5 5.38281C8.25 5.38281 7.1875 5.82031 6.3125 6.69531C5.4375 7.57031 5 8.63281 5 9.88281C5 11.1328 5.4375 12.1953 6.3125 13.0703C7.1875 13.9453 8.25 14.3828 9.5 14.3828Z" fill="#212121"/>
</g>
</g>
<defs>
<clipPath id="clip0_2321_9333">
<rect width="24" height="24" fill="white" transform="translate(0 0.382812)"/>
</clipPath>
</defs>
</svg>
