<svg width="24" height="25" viewBox="0 0 24 25" fill="none" xmlns="http://www.w3.org/2000/svg">
<g clip-path="url(#clip0_2412_7572)">
<path d="M20.557 6.24102L18.0609 3.74727C17.7562 3.44258 17.3484 3.27148 16.9172 3.27148C16.4859 3.27148 16.0781 3.44023 15.7734 3.74727L13.0852 6.43086C12.7805 6.73555 12.6094 7.1457 12.6094 7.57695C12.6094 8.01055 12.7781 8.41602 13.0852 8.72305L15.1852 10.8254C14.7068 11.94 14.0194 12.9528 13.1602 13.809C12.3 14.6738 11.2945 15.3559 10.1789 15.8387L8.07891 13.7363C7.77422 13.4316 7.36641 13.2605 6.93516 13.2605C6.72244 13.2598 6.51172 13.3014 6.31532 13.3831C6.11892 13.4648 5.9408 13.5849 5.79141 13.7363L3.10078 16.4199C2.79609 16.7246 2.625 17.1348 2.625 17.566C2.625 17.9996 2.79375 18.4051 3.10078 18.7121L5.59453 21.2059C6.11484 21.7262 6.83203 22.0238 7.56797 22.0238C7.72031 22.0238 7.86797 22.0121 8.01797 21.9863C11.1211 21.4754 14.2008 19.823 16.6875 17.3387C19.1719 14.8496 20.8219 11.7699 21.3375 8.66445C21.4852 7.7832 21.1898 6.87617 20.557 6.24102ZM19.6758 8.38555C19.2188 11.1488 17.7328 13.9051 15.4945 16.1434C13.2562 18.3816 10.5023 19.8676 7.73906 20.3246C7.39219 20.3832 7.03594 20.266 6.78281 20.0152L4.33359 17.566L6.93047 14.9668L9.73828 17.7793L9.75937 17.8004L10.2656 17.6129C11.8006 17.0485 13.1945 16.1571 14.3508 15.0005C15.507 13.8439 16.3979 12.4496 16.9617 10.9145L17.1492 10.4082L14.318 7.5793L16.9148 4.98008L19.3641 7.4293C19.6172 7.68242 19.7344 8.03867 19.6758 8.38555Z" fill="#FCFCFC"/>
</g>
<defs>
<clipPath id="clip0_2412_7572">
<rect width="24" height="24" fill="white" transform="translate(0 0.646484)"/>
</clipPath>
</defs>
</svg>
