<svg width="24" height="25" viewBox="0 0 24 25" fill="none" xmlns="http://www.w3.org/2000/svg">
<g clip-path="url(#clip0_2024_1902)">
<path d="M21.75 4.39551H2.25C1.83516 4.39551 1.5 4.73066 1.5 5.14551V20.1455C1.5 20.5604 1.83516 20.8955 2.25 20.8955H21.75C22.1648 20.8955 22.5 20.5604 22.5 20.1455V5.14551C22.5 4.73066 22.1648 4.39551 21.75 4.39551ZM20.8125 6.99238V19.208H3.1875V6.99238L2.54063 6.48848L3.46172 5.30488L4.46484 6.08535H19.5375L20.5406 5.30488L21.4617 6.48848L20.8125 6.99238ZM19.5375 6.08301L12 11.9424L4.4625 6.08301L3.45938 5.30254L2.53828 6.48613L3.18516 6.99004L11.1914 13.215C11.4217 13.3939 11.7049 13.491 11.9965 13.491C12.2881 13.491 12.5713 13.3939 12.8016 13.215L20.8125 6.99238L21.4594 6.48848L20.5383 5.30488L19.5375 6.08301Z" fill="#FCFCFC"/>
</g>
<defs>
<clipPath id="clip0_2024_1902">
<rect width="24" height="24" fill="white" transform="translate(0 0.645508)"/>
</clipPath>
</defs>
</svg>
