<svg width="24" height="25" viewBox="0 0 24 25" fill="none" xmlns="http://www.w3.org/2000/svg">
<g clip-path="url(#clip0_2024_1907)">
<path d="M20.557 6.24004L18.0609 3.74629C17.7562 3.4416 17.3484 3.27051 16.9172 3.27051C16.4859 3.27051 16.0781 3.43926 15.7734 3.74629L13.0852 6.42988C12.7805 6.73457 12.6094 7.14473 12.6094 7.57598C12.6094 8.00957 12.7781 8.41504 13.0852 8.72207L15.1852 10.8244C14.7068 11.9391 14.0194 12.9518 13.1602 13.808C12.3 14.6728 11.2945 15.3549 10.1789 15.8377L8.07891 13.7354C7.77422 13.4307 7.36641 13.2596 6.93516 13.2596C6.72244 13.2588 6.51172 13.3005 6.31532 13.3822C6.11892 13.4639 5.9408 13.5839 5.79141 13.7354L3.10078 16.4189C2.79609 16.7236 2.625 17.1338 2.625 17.565C2.625 17.9986 2.79375 18.4041 3.10078 18.7111L5.59453 21.2049C6.11484 21.7252 6.83203 22.0229 7.56797 22.0229C7.72031 22.0229 7.86797 22.0111 8.01797 21.9853C11.1211 21.4744 14.2008 19.8221 16.6875 17.3377C19.1719 14.8486 20.8219 11.7689 21.3375 8.66348C21.4852 7.78223 21.1898 6.8752 20.557 6.24004ZM19.6758 8.38457C19.2188 11.1479 17.7328 13.9041 15.4945 16.1424C13.2562 18.3807 10.5023 19.8666 7.73906 20.3236C7.39219 20.3822 7.03594 20.265 6.78281 20.0143L4.33359 17.565L6.93047 14.9658L9.73828 17.7783L9.75937 17.7994L10.2656 17.6119C11.8006 17.0476 13.1945 16.1562 14.3508 14.9995C15.507 13.8429 16.3979 12.4487 16.9617 10.9135L17.1492 10.4072L14.318 7.57832L16.9148 4.9791L19.3641 7.42832C19.6172 7.68144 19.7344 8.0377 19.6758 8.38457Z" fill="#FCFCFC"/>
</g>
<defs>
<clipPath id="clip0_2024_1907">
<rect width="24" height="24" fill="white" transform="translate(0 0.645508)"/>
</clipPath>
</defs>
</svg>
