<svg width="24" height="25" viewBox="0 0 24 25" fill="none" xmlns="http://www.w3.org/2000/svg">
<g clip-path="url(#clip0_2412_7567)">
<path d="M21.75 4.39648H2.25C1.83516 4.39648 1.5 4.73164 1.5 5.14648V20.1465C1.5 20.5613 1.83516 20.8965 2.25 20.8965H21.75C22.1648 20.8965 22.5 20.5613 22.5 20.1465V5.14648C22.5 4.73164 22.1648 4.39648 21.75 4.39648ZM20.8125 6.99336V19.209H3.1875V6.99336L2.54063 6.48945L3.46172 5.30586L4.46484 6.08633H19.5375L20.5406 5.30586L21.4617 6.48945L20.8125 6.99336ZM19.5375 6.08398L12 11.9434L4.4625 6.08398L3.45938 5.30352L2.53828 6.48711L3.18516 6.99102L11.1914 13.216C11.4217 13.3949 11.7049 13.492 11.9965 13.492C12.2881 13.492 12.5713 13.3949 12.8016 13.216L20.8125 6.99336L21.4594 6.48945L20.5383 5.30586L19.5375 6.08398Z" fill="#FCFCFC"/>
</g>
<defs>
<clipPath id="clip0_2412_7567">
<rect width="24" height="24" fill="white" transform="translate(0 0.646484)"/>
</clipPath>
</defs>
</svg>
