<svg width="24" height="24" viewBox="0 0 24 24" fill="none" xmlns="http://www.w3.org/2000/svg">
<path d="M7 20.9996V7.99961L13 2.04961C13.25 1.79961 13.5458 1.65378 13.8875 1.61211C14.2292 1.57044 14.5583 1.63294 14.875 1.79961C15.1917 1.96628 15.425 2.19961 15.575 2.49961C15.725 2.79961 15.7583 3.10794 15.675 3.42461L14.55 7.99961H21C21.5333 7.99961 22 8.19961 22.4 8.59961C22.8 8.99961 23 9.46628 23 9.99961V11.9996C23 12.1163 22.9833 12.2413 22.95 12.3746C22.9167 12.5079 22.8833 12.6329 22.85 12.7496L19.85 19.7996C19.7 20.1329 19.45 20.4163 19.1 20.6496C18.75 20.8829 18.3833 20.9996 18 20.9996H7ZM9 8.84961V18.9996H18L21 11.9996V9.99961H12L13.35 4.49961L9 8.84961ZM4 20.9996C3.45 20.9996 2.97917 20.8038 2.5875 20.4121C2.19583 20.0204 2 19.5496 2 18.9996V9.99961C2 9.44961 2.19583 8.97878 2.5875 8.58711C2.97917 8.19544 3.45 7.99961 4 7.99961H7V9.99961H4V18.9996H7V20.9996H4Z" fill="#4F4F4F"/>
</svg>
