<svg width="24" height="23" viewBox="0 0 24 23" fill="none" xmlns="http://www.w3.org/2000/svg">
<path d="M7.49818 19.7165V7.51088L13.1315 1.92446C13.3663 1.68973 13.644 1.55281 13.9648 1.51369C14.2856 1.47457 14.5947 1.53325 14.892 1.68973C15.1893 1.84621 15.4084 2.06529 15.5492 2.34696C15.69 2.62863 15.7213 2.91812 15.6431 3.21543L14.5868 7.51088H20.6427C21.1434 7.51088 21.5816 7.69865 21.9572 8.07421C22.3327 8.44977 22.5205 8.88792 22.5205 9.38866V11.2665C22.5205 11.376 22.5048 11.4934 22.4735 11.6185C22.4423 11.7437 22.411 11.8611 22.3797 11.9706L19.563 18.5898C19.4221 18.9028 19.1874 19.1688 18.8588 19.3879C18.5302 19.607 18.1859 19.7165 17.826 19.7165H7.49818ZM9.37597 8.30894V17.8387H17.826L20.6427 11.2665V9.38866H12.1927L13.4602 4.22475L9.37597 8.30894ZM4.6815 19.7165C4.16511 19.7165 3.72304 19.5326 3.35531 19.1649C2.98758 18.7972 2.80371 18.3551 2.80371 17.8387V9.38866C2.80371 8.87227 2.98758 8.43021 3.35531 8.06248C3.72304 7.69474 4.16511 7.51088 4.6815 7.51088H7.49818V9.38866H4.6815V17.8387H7.49818V19.7165H4.6815Z" fill="#4F4F4F"/>
</svg>
