<svg width="25" height="26" viewBox="0 0 25 26" fill="none" xmlns="http://www.w3.org/2000/svg">
<path d="M24 0.145508H1C0.446875 0.145508 0 0.592383 0 1.14551V24.1455C0 24.6986 0.446875 25.1455 1 25.1455H24C24.5531 25.1455 25 24.6986 25 24.1455V1.14551C25 0.592383 24.5531 0.145508 24 0.145508ZM23 23.1455H17.2469V15.4643H20.4969L20.9844 11.6924H17.2469V9.28301C17.2469 8.18926 17.55 7.44551 19.1156 7.44551H21.1125V4.07051C20.7656 4.02363 19.5813 3.92051 18.2 3.92051C15.3188 3.92051 13.3469 5.67988 13.3469 8.90801V11.6893H10.0906V15.4611H13.35V23.1455H2V2.14551H23V23.1455Z" fill="#FCFCFC"/>
</svg>
