<svg width="25" height="26" viewBox="0 0 25 26" fill="none" xmlns="http://www.w3.org/2000/svg">
<path d="M24 0.146484H1C0.446875 0.146484 0 0.593359 0 1.14648V24.1465C0 24.6996 0.446875 25.1465 1 25.1465H24C24.5531 25.1465 25 24.6996 25 24.1465V1.14648C25 0.593359 24.5531 0.146484 24 0.146484ZM23 23.1465H17.2469V15.4652H20.4969L20.9844 11.6934H17.2469V9.28398C17.2469 8.19023 17.55 7.44648 19.1156 7.44648H21.1125V4.07148C20.7656 4.02461 19.5813 3.92148 18.2 3.92148C15.3188 3.92148 13.3469 5.68086 13.3469 8.90898V11.6902H10.0906V15.4621H13.35V23.1465H2V2.14648H23V23.1465Z" fill="#FCFCFC"/>
</svg>
